<svg xmlns="http://www.w3.org/2000/svg" viewBox="0 0 518.45 511.36"><defs><style>.cls-1,.cls-3,.cls-4{fill:none;stroke-width:2px;}.cls-1,.cls-2,.cls-3,.cls-4{stroke:#fff;}.cls-1,.cls-2,.cls-3{stroke-miterlimit:10;}.cls-2{fill:#fff;}.cls-3,.cls-4{stroke-linecap:round;}.cls-4{stroke-linejoin:round;}</style></defs><title>Asset 2</title><g id="Layer_2" data-name="Layer 2"><g id="Layer_1-2" data-name="Layer 1"><circle class="cls-1" cx="211.19" cy="346.75" r="10.12"/><circle class="cls-1" cx="84.59" cy="277.15" r="10.12"/><circle class="cls-2" cx="55.96" cy="158.76" r="10.12"/><circle class="cls-2" cx="10.62" cy="152.38" r="10.12"/><line class="cls-1" x1="498.04" y1="59.9" x2="218.34" y2="339.59"/><circle class="cls-1" cx="270.46" cy="322.9" r="6.37"/><line class="cls-1" x1="355.69" y1="237.67" x2="274.97" y2="318.4"/><line class="cls-1" x1="496.06" y1="22.81" x2="355.98" y2="162.89"/><line class="cls-3" x1="355.69" y1="163.03" x2="355.69" y2="237.67"/><circle class="cls-1" cx="244.45" cy="51.97" r="6.21"/><line class="cls-1" x1="273.34" y1="23.09" x2="248.85" y2="47.58"/><line class="cls-1" x1="471.15" y1="264.18" x2="372.89" y2="362.44"/><line class="cls-1" x1="327.01" y1="20.43" x2="230.75" y2="116.69"/><line class="cls-1" x1="262.91" y1="11.11" x2="172.79" y2="101.23"/><line class="cls-1" x1="98.04" y1="116.68" x2="56.56" y2="158.16"/><line class="cls-1" x1="62.7" y1="100.3" x2="12.17" y2="150.83"/><line class="cls-1" x1="174.12" y1="187.63" x2="91.75" y2="270"/><circle class="cls-1" cx="274.3" cy="439.39" r="10.12"/><line class="cls-1" x1="379.83" y1="333.86" x2="281.45" y2="432.24"/><circle class="cls-2" cx="198.17" cy="242.71" r="10.12"/><circle class="cls-2" cx="155.77" cy="356.14" r="10.12"/><circle class="cls-2" cx="289.11" cy="119.71" r="10.12"/><line class="cls-1" x1="440.18" y1="0.71" x2="198.17" y2="242.71"/><circle class="cls-2" cx="313.89" cy="305.76" r="10.12"/><line class="cls-1" x1="495.23" y1="124.43" x2="313.89" y2="305.76"/><line class="cls-3" x1="460.72" y1="19.47" x2="272.2" y2="207.99"/><line class="cls-3" x1="490.9" y1="166.98" x2="379.56" y2="278.32"/><line class="cls-3" x1="289.11" y1="119.71" x2="220.58" y2="188.24"/><line class="cls-4" x1="272.13" y1="239.78" x2="155.77" y2="356.14"/><line class="cls-4" x1="272.13" y1="208.06" x2="272.13" y2="238.92"/><line class="cls-4" x1="373.79" y1="361.53" x2="373.79" y2="456.52"/><line class="cls-4" x1="230.7" y1="116.73" x2="97.98" y2="116.73"/><circle class="cls-2" cx="157.03" cy="136.74" r="6.95"/><line class="cls-1" x1="212.9" y1="80.87" x2="157.44" y2="136.33"/><line class="cls-1" x1="371.99" y1="9.85" x2="300.49" y2="81.35"/><line class="cls-4" x1="300.53" y1="81.26" x2="212.51" y2="81.26"/><circle class="cls-2" cx="102.45" cy="127.71" r="6.95"/><line class="cls-1" x1="193.71" y1="36.45" x2="102.86" y2="127.3"/><line class="cls-1" x1="284.17" y1="34.06" x2="281.08" y2="37.15"/><line class="cls-4" x1="281.73" y1="36.45" x2="193.71" y2="36.45"/><line class="cls-4" x1="173.28" y1="100.73" x2="62.27" y2="100.73"/><line class="cls-4" x1="219.98" y1="188.23" x2="173.51" y2="188.23"/><line class="cls-4" x1="379.52" y1="334.82" x2="379.52" y2="278.65"/><circle class="cls-2" cx="330.26" cy="500.74" r="10.12"/><circle class="cls-2" cx="477.1" cy="258.23" r="10.12"/><line class="cls-3" x1="374.14" y1="456.86" x2="330.86" y2="500.14"/><circle class="cls-2" cx="468.93" cy="316.31" r="5.69"/><line class="cls-1" x1="517.74" y1="267.5" x2="469.27" y2="315.97"/><circle class="cls-2" cx="367.56" cy="309.5" r="5.69"/><circle class="cls-2" cx="426.88" cy="256.17" r="5.69"/><line class="cls-1" x1="491.15" y1="185.9" x2="367.9" y2="309.16"/><line class="cls-1" x1="426.31" y1="256.74" x2="307.09" y2="375.97"/><circle class="cls-2" cx="349.85" cy="421.68" r="5.69"/><line class="cls-3" x1="429.17" y1="342.35" x2="350.19" y2="421.34"/><line class="cls-3" x1="428.15" y1="273.32" x2="429.17" y2="342.35"/><line class="cls-1" x1="475.86" y1="225.61" x2="427.66" y2="273.81"/><circle class="cls-1" cx="317.77" cy="319.81" r="10.12"/><line class="cls-1" x1="500.03" y1="137.55" x2="324.92" y2="312.66"/><circle class="cls-1" cx="303.28" cy="379.78" r="6.37"/></g></g></svg>